<svg xmlns="http://www.w3.org/2000/svg" viewBox="0 0 128 128" width="128" height="128">
  <defs>
    <linearGradient id="grad" x1="0%" y1="0%" x2="100%" y2="100%">
      <stop offset="0%" style="stop-color:#667eea;stop-opacity:1" />
      <stop offset="100%" style="stop-color:#764ba2;stop-opacity:1" />
    </linearGradient>
  </defs>
  <rect width="128" height="128" rx="24" fill="url(#grad)"/>
  <circle cx="64" cy="40" r="8" fill="white"/>
  <circle cx="64" cy="64" r="8" fill="white"/>
  <circle cx="64" cy="88" r="8" fill="white"/>
  <path d="M 72 40 L 90 40 L 85 35 M 90 40 L 85 45" stroke="white" stroke-width="3" fill="none" stroke-linecap="round"/>
  <path d="M 72 64 L 90 64 L 85 59 M 90 64 L 85 69" stroke="white" stroke-width="3" fill="none" stroke-linecap="round"/>
  <path d="M 72 88 L 90 88 L 85 83 M 90 88 L 85 93" stroke="white" stroke-width="3" fill="none" stroke-linecap="round"/>
  <path d="M 30 30 L 35 30 L 35 35" stroke="#48bb78" stroke-width="3" fill="none" stroke-linecap="round"/>
  <path d="M 30 98 L 35 98 L 35 93" stroke="#48bb78" stroke-width="3" fill="none" stroke-linecap="round"/>
  <path d="M 98 30 L 93 30 L 93 35" stroke="#48bb78" stroke-width="3" fill="none" stroke-linecap="round"/>
  <path d="M 98 98 L 93 98 L 93 93" stroke="#48bb78" stroke-width="3" fill="none" stroke-linecap="round"/>
</svg>
